<svg xmlns="http://www.w3.org/2000/svg" xmlns:xlink="http://www.w3.org/1999/xlink" width="1000" height="680"><g transform="translate(0 0)"><path d="M180 210c0 44.18-35.82 80-80 80s-80-35.82-80-80 35.82-80 80-80 80 35.82 80 80z" stroke="#000" stroke-width="2" fill="#fff"/><use xlink:href="#a" transform="matrix(1,0,0,1,20,130) translate(29.099999999999994 83.60000000000001)"/><use xlink:href="#b" transform="matrix(1,0,0,1,20,130) translate(95 83.60000000000001)"/><path d="M493 540c0 44.18-35.82 80-80 80s-80-35.82-80-80 35.82-80 80-80 80 35.82 80 80z" stroke="#000" stroke-width="2" fill="#fff"/><use xlink:href="#c" transform="matrix(1,0,0,1,333,460) translate(48.5 51.19999999999999)"/><use xlink:href="#d" transform="matrix(1,0,0,1,333,460) translate(26.375 72.8)"/><use xlink:href="#e" transform="matrix(1,0,0,1,333,460) translate(72.725 72.8)"/><use xlink:href="#f" transform="matrix(1,0,0,1,333,460) translate(11.549999999999997 94.4)"/><use xlink:href="#g" transform="matrix(1,0,0,1,333,460) translate(69.55 94.4)"/><use xlink:href="#h" transform="matrix(1,0,0,1,333,460) translate(90.5 94.4)"/><use xlink:href="#i" transform="matrix(1,0,0,1,333,460) translate(43.074999999999996 116)"/><use xlink:href="#b" transform="matrix(1,0,0,1,333,460) translate(81.025 116)"/><path d="M413.33 290L413 459" stroke="#000" stroke-width="2" fill="none"/><path d="M413.33 290h.68l.33-.02v.02h-2v-.03zM417.66 444.74L413 459l-4.6-14.27z"/><path d="M419.04 443.75l-5.32 16.27-.72-.02H412.27l-5.25-16.28zm-6.03 12l3.3-10-6.53-.02z"/><path fill="#fff" d="M340.3 353.3h145.75v42.4H340.3z"/><use xlink:href="#j" transform="matrix(1,0,0,1,340.2916666666166,353.30126299314566) translate(0 14.4)"/><use xlink:href="#k" transform="matrix(1,0,0,1,340.2916666666166,353.30126299314566) translate(25 14.4)"/><use xlink:href="#l" transform="matrix(1,0,0,1,340.2916666666166,353.30126299314566) translate(70.95 14.4)"/><use xlink:href="#m" transform="matrix(1,0,0,1,340.2916666666166,353.30126299314566) translate(0 35.46666666666667)"/><path d="M893 540c0 44.18-35.82 80-80 80s-80-35.82-80-80 35.82-80 80-80 80 35.82 80 80z" stroke="#000" stroke-width="2" fill="#fff"/><use xlink:href="#n" transform="matrix(1,0,0,1,733,460) translate(25.549999999999997 83.60000000000001)"/><use xlink:href="#o" transform="matrix(1,0,0,1,733,460) translate(68.5 83.60000000000001)"/><use xlink:href="#p" transform="matrix(1,0,0,1,733,460) translate(93.5 83.60000000000001)"/><path d="M493 540h240" stroke="#000" stroke-width="2" fill="none"/><path d="M493 541h-.03l.03-1v-.68l-.02-.32h.02zM733 540l-14.27 4.64v-9.28z"/><path d="M733.03 538.96L733 540v.68l.02.37-15.3 4.96v-12zm-13.3 4.3l10.03-3.26-10.03-3.26z"/><path fill="#fff" d="M596.52 529.2h103.26v21.6H596.52z"/><use xlink:href="#q" transform="matrix(1,0,0,1,596.5196455212866,529.2) translate(0 14.4)"/><use xlink:href="#o" transform="matrix(1,0,0,1,596.5196455212866,529.2) translate(40.25 14.4)"/><use xlink:href="#r" transform="matrix(1,0,0,1,596.5196455212866,529.2) translate(65.25 14.4)"/><path d="M493.33 210c0 44.18-35.8 80-80 80-44.18 0-80-35.82-80-80s35.82-80 80-80c44.2 0 80 35.82 80 80z" stroke="#000" stroke-width="2" fill="#fff"/><use xlink:href="#s" transform="matrix(1,0,0,1,333.33333333333326,130) translate(36.05 72.8)"/><use xlink:href="#t" transform="matrix(1,0,0,1,333.33333333333326,130) translate(98 72.8)"/><use xlink:href="#u" transform="matrix(1,0,0,1,333.33333333333326,130) translate(29.599999999999994 94.4)"/><path d="M353.4 155.55l-2.34-2.15-2.08-2.12-1.86-2.1-1.66-2.05-1.5-2.04-1.3-2.04-1.2-2-1.05-2.02-.92-2-.8-2.02-.7-2-.6-2.04-.5-2.05-.4-2.08-.3-2.1-.2-2.14-.1-2.16.03-2.22.14-2.26.24-2.32.37-2.38.5-2.44.64-2.5.8-2.57.95-2.63 1.13-2.7 1.33-2.76 1.53-2.8 1.73-2.87 1.95-2.9 2.2-2.9 2.4-2.9 2.6-2.86 2.84-2.8 3.02-2.73 3.2-2.6 3.35-2.46 3.48-2.3 3.56-2.12 3.62-1.92 3.65-1.7 3.67-1.52 3.63-1.3 3.6-1.07 3.56-.88 3.5-.68 3.43-.5 3.35-.33 3.3-.15 1.52-.02 4.98.2 5.24.57 5.48 1.03 5.73 1.5 5.93 2.05 6.02 2.6 6 3.12 5.88 3.62 5.58 4.04 5.17 4.34 4.63 4.53 4.06 4.6 3.12 4.08 3.02 4.6 2.45 4.4 1.93 4.2 1.5 4.02 1.1 3.82.73 3.63.46 3.48.17 3.32-.08 3.2-.3 3.12-.55 3.03-.77 2.98-1 2.95-1.25 2.92-1.52 2.93-1.84 2.96-2.2 3-2.6 3.05-3.13 3.15-1.34 1.2" stroke="#000" stroke-width="2" fill="none"/><path d="M354.73 155.55l-1.33 1.52-.76-.86 1.5-1.3zM486.12 147.83l-12.86 7.72 5.86-13.8z"/><path d="M487.8 147.98l-14.74 8.86-.97-1.1 6.64-15.65zm-12.42 5.13l9.04-5.42-4.9-4.27z"/><path fill="#fff" d="M377.3 87.92h213.4v21.6H377.3z"/><use xlink:href="#v" transform="matrix(1,0,0,1,377.3031587693787,87.91897138693585) translate(0 14.4)"/><use xlink:href="#w" transform="matrix(1,0,0,1,377.3031587693787,87.91897138693585) translate(77.80000000000001 14.4)"/><use xlink:href="#x" transform="matrix(1,0,0,1,377.3031587693787,87.91897138693585) translate(98.75000000000001 14.4)"/><path d="M180 210h153.33" stroke="#000" stroke-width="2" fill="none"/><path d="M180 211h-.03l.03-1v-.68l-.02-.32h.02zM333.33 210l-14.26 4.64v-9.28z"/><path d="M333.37 208.96l-.04 1.04v.68l.02.37-15.28 4.96v-12zm-13.3 4.3L330.1 210l-10.03-3.26z"/><path fill="#fff" d="M195.7 199.2h101v21.6h-101z"/><g><use xlink:href="#y" transform="matrix(1,0,0,1,195.6877082317859,199.20000000000002) translate(0 14.4)"/><use xlink:href="#z" transform="matrix(1,0,0,1,195.6877082317859,199.20000000000002) translate(48 14.4)"/></g><path d="M893.33 210c0 44.18-35.8 80-80 80-44.18 0-80-35.82-80-80s35.82-80 80-80c44.2 0 80 35.82 80 80z" stroke="#000" stroke-width="2" fill="#fff"/><g><use xlink:href="#A" transform="matrix(1,0,0,1,733.3333333333333,130) translate(8.650000000000006 72.8)"/><use xlink:href="#B" transform="matrix(1,0,0,1,733.3333333333333,130) translate(49.55000000000001 72.8)"/><use xlink:href="#C" transform="matrix(1,0,0,1,733.3333333333333,130) translate(139.35 72.8)"/><use xlink:href="#f" transform="matrix(1,0,0,1,733.3333333333333,130) translate(11.525000000000006 94.4)"/><use xlink:href="#D" transform="matrix(1,0,0,1,733.3333333333333,130) translate(69.525 94.4)"/></g><path d="M813 460l.33-170" stroke="#000" stroke-width="2" fill="none"/><path d="M814 460v.03l-1-.03h-.68l-.32.02V460zM817.94 304.27h-9.27l4.66-14.27z"/><path d="M813.33 290h.68l.38-.02 4.94 15.3-12.03-.03 5-15.28zm-3.28 13.26h6.52l-3.24-10.02z"/><path fill="#fff" d="M669.93 353.8h286.5v42.4h-286.5z"/><g><use xlink:href="#E" transform="matrix(1,0,0,1,669.9259259259759,353.79872501274997) translate(0 14.4)"/><use xlink:href="#F" transform="matrix(1,0,0,1,669.9259259259759,353.79872501274997) translate(31.9 14.4)"/><use xlink:href="#G" transform="matrix(1,0,0,1,669.9259259259759,353.79872501274997) translate(203.78888888888892 14.4)"/><use xlink:href="#H" transform="matrix(1,0,0,1,669.9259259259759,353.79872501274997) translate(0 35.46666666666667)"/><use xlink:href="#I" transform="matrix(1,0,0,1,669.9259259259759,353.79872501274997) translate(73.08888888888889 35.46666666666667)"/><use xlink:href="#J" transform="matrix(1,0,0,1,669.9259259259759,353.79872501274997) translate(130.72222222222223 35.46666666666667)"/><use xlink:href="#K" transform="matrix(1,0,0,1,669.9259259259759,353.79872501274997) translate(164.42592592592592 35.46666666666667)"/><use xlink:href="#L" transform="matrix(1,0,0,1,669.9259259259759,353.79872501274997) translate(195.24074074074076 35.46666666666667)"/></g><path d="M494.33 210h239" stroke="#000" stroke-width="2" fill="none"/><path d="M494.33 211h-1.03l.03-1v-1h1zM733.33 210l-14.26 4.64v-9.28z"/><path d="M733.37 208.96l-.04 1.04v.68l.02.37-15.28 4.96v-12zm-13.3 4.3L730.1 210l-10.03-3.26z"/><path fill="#fff" d="M551.9 189.2h123.9v41.6H551.9z"/><g><use xlink:href="#M" transform="matrix(1,0,0,1,551.8911933620765,189.20000000000002) translate(0 13.866666666666669)"/><use xlink:href="#N" transform="matrix(1,0,0,1,551.8911933620765,189.20000000000002) translate(0 34.66666666666667)"/><use xlink:href="#O" transform="matrix(1,0,0,1,551.8911933620765,189.20000000000002) translate(29.85185185185186 34.66666666666667)"/></g><path d="M813 460l.33-45" stroke="#000" stroke-width="2" fill="none"/><path d="M814 460v.03l-1-.03h-.68l-.32.02V460z"/><path d="M813.33 415l4.53 14.3-9.27-.07z" stroke="#000" stroke-width="2"/><defs><path d="M30-248c118-7 216 8 213 122C240-48 200 0 122 0H30v-248zM63-27c89 8 146-16 146-99s-60-101-146-95v194" id="P"/><path d="M100-194c63 0 86 42 84 106H49c0 40 14 67 53 68 26 1 43-12 49-29l28 8c-11 28-37 45-77 45C44 4 14-33 15-96c1-61 26-98 85-98zm52 81c6-60-76-77-97-28-3 7-6 17-6 28h103" id="Q"/><path d="M115-194c55 1 70 41 70 98S169 2 115 4C84 4 66-9 55-30l1 105H24l-1-265h31l2 30c10-21 28-34 59-34zm-8 174c40 0 45-34 45-75s-6-73-45-74c-42 0-51 32-51 76 0 43 10 73 51 73" id="R"/><path d="M100-194c62-1 85 37 85 99 1 63-27 99-86 99S16-35 15-95c0-66 28-99 85-99zM99-20c44 1 53-31 53-75 0-43-8-75-51-75s-53 32-53 75 10 74 51 75" id="S"/><path d="M135-143c-3-34-86-38-87 0 15 53 115 12 119 90S17 21 10-45l28-5c4 36 97 45 98 0-10-56-113-15-118-90-4-57 82-63 122-42 12 7 21 19 24 35" id="T"/><path d="M24-231v-30h32v30H24zM24 0v-190h32V0H24" id="U"/><path d="M59-47c-2 24 18 29 38 22v24C64 9 27 4 27-40v-127H5v-23h24l9-43h21v43h35v23H59v120" id="V"/><g id="a"><use transform="matrix(0.05,0,0,0.05,0,0)" xlink:href="#P"/><use transform="matrix(0.05,0,0,0.05,12.950000000000001,0)" xlink:href="#Q"/><use transform="matrix(0.05,0,0,0.05,22.950000000000003,0)" xlink:href="#R"/><use transform="matrix(0.05,0,0,0.05,32.95,0)" xlink:href="#S"/><use transform="matrix(0.05,0,0,0.05,42.95,0)" xlink:href="#T"/><use transform="matrix(0.05,0,0,0.05,51.95,0)" xlink:href="#U"/><use transform="matrix(0.05,0,0,0.05,55.900000000000006,0)" xlink:href="#V"/></g><path d="M30 0v-248h187v28H63v79h144v27H63v87h162V0H30" id="W"/><path d="M127-220V0H93v-220H8v-28h204v28h-85" id="X"/><path d="M197 0v-115H63V0H30v-248h33v105h134v-105h34V0h-34" id="Y"/><g id="b"><use transform="matrix(0.05,0,0,0.05,0,0)" xlink:href="#W"/><use transform="matrix(0.05,0,0,0.05,12,0)" xlink:href="#X"/><use transform="matrix(0.05,0,0,0.05,22.950000000000003,0)" xlink:href="#Y"/></g><path d="M30 0v-248h33v221h125V0H30" id="Z"/><path d="M96-169c-40 0-48 33-48 73s9 75 48 75c24 0 41-14 43-38l32 2c-6 37-31 61-74 61-59 0-76-41-82-99-10-93 101-131 147-64 4 7 5 14 7 22l-32 3c-4-21-16-35-41-35" id="aa"/><path d="M143 0L79-87 56-68V0H24v-261h32v163l83-92h37l-77 82L181 0h-38" id="ab"/><path d="M85-194c31 0 48 13 60 33l-1-100h32l1 261h-30c-2-10 0-23-3-31C134-8 116 4 85 4 32 4 16-35 15-94c0-66 23-100 70-100zm9 24c-40 0-46 34-46 75 0 40 6 74 45 74 42 0 51-32 51-76 0-42-9-74-50-73" id="ac"/><path d="M33 0v-38h34V0H33" id="ad"/><g id="c"><use transform="matrix(0.05,0,0,0.05,0,0)" xlink:href="#Z"/><use transform="matrix(0.05,0,0,0.05,10,0)" xlink:href="#S"/><use transform="matrix(0.05,0,0,0.05,20,0)" xlink:href="#aa"/><use transform="matrix(0.05,0,0,0.05,29,0)" xlink:href="#ab"/><use transform="matrix(0.05,0,0,0.05,38,0)" xlink:href="#Q"/><use transform="matrix(0.05,0,0,0.05,48,0)" xlink:href="#ac"/><use transform="matrix(0.05,0,0,0.05,58,0)" xlink:href="#ad"/></g><path d="M212-179c-10-28-35-45-73-45-59 0-87 40-87 99 0 60 29 101 89 101 43 0 62-24 78-52l27 14C228-24 195 4 139 4 59 4 22-46 18-125c-6-104 99-153 187-111 19 9 31 26 39 46" id="ae"/><path d="M141-36C126-15 110 5 73 4 37 3 15-17 15-53c-1-64 63-63 125-63 3-35-9-54-41-54-24 1-41 7-42 31l-33-3c5-37 33-52 76-52 45 0 72 20 72 64v82c-1 20 7 32 28 27v20c-31 9-61-2-59-35zM48-53c0 20 12 33 32 33 41-3 63-29 60-74-43 2-92-5-92 41" id="af"/><path d="M117-194c89-4 53 116 60 194h-32v-121c0-31-8-49-39-48C34-167 62-67 57 0H25l-1-190h30c1 10-1 24 2 32 11-22 29-35 61-36" id="ag"/><path d="M47-170H22l-4-78h33" id="ah"/><g id="d"><use transform="matrix(0.05,0,0,0.05,0,0)" xlink:href="#ae"/><use transform="matrix(0.05,0,0,0.05,12.950000000000001,0)" xlink:href="#af"/><use transform="matrix(0.05,0,0,0.05,22.950000000000003,0)" xlink:href="#ag"/><use transform="matrix(0.05,0,0,0.05,32.95,0)" xlink:href="#ah"/><use transform="matrix(0.05,0,0,0.05,36.35,0)" xlink:href="#V"/></g><path d="M114-163C36-179 61-72 57 0H25l-1-190h30c1 12-1 29 2 39 6-27 23-49 58-41v29" id="ai"/><path d="M101-234c-31-9-42 10-38 44h38v23H63V0H32v-167H5v-23h27c-7-52 17-82 69-68v24" id="aj"/><g id="e"><use transform="matrix(0.05,0,0,0.05,0,0)" xlink:href="#V"/><use transform="matrix(0.05,0,0,0.05,5,0)" xlink:href="#ai"/><use transform="matrix(0.05,0,0,0.05,10.95,0)" xlink:href="#af"/><use transform="matrix(0.05,0,0,0.05,20.95,0)" xlink:href="#ag"/><use transform="matrix(0.05,0,0,0.05,30.950000000000003,0)" xlink:href="#T"/><use transform="matrix(0.05,0,0,0.05,39.95,0)" xlink:href="#aj"/><use transform="matrix(0.05,0,0,0.05,44.95,0)" xlink:href="#Q"/><use transform="matrix(0.05,0,0,0.05,54.95,0)" xlink:href="#ai"/></g><g id="f"><use transform="matrix(0.05,0,0,0.05,0,0)" xlink:href="#V"/><use transform="matrix(0.05,0,0,0.05,5,0)" xlink:href="#S"/><use transform="matrix(0.05,0,0,0.05,15,0)" xlink:href="#ab"/><use transform="matrix(0.05,0,0,0.05,24,0)" xlink:href="#Q"/><use transform="matrix(0.05,0,0,0.05,34,0)" xlink:href="#ag"/><use transform="matrix(0.05,0,0,0.05,44,0)" xlink:href="#T"/></g><g id="g"><use transform="matrix(0.05,0,0,0.05,0,0)" xlink:href="#S"/><use transform="matrix(0.05,0,0,0.05,10,0)" xlink:href="#ai"/></g><g id="h"><use transform="matrix(0.05,0,0,0.05,0,0)" xlink:href="#ac"/><use transform="matrix(0.05,0,0,0.05,10,0)" xlink:href="#Q"/><use transform="matrix(0.05,0,0,0.05,20,0)" xlink:href="#R"/><use transform="matrix(0.05,0,0,0.05,30,0)" xlink:href="#S"/><use transform="matrix(0.05,0,0,0.05,40,0)" xlink:href="#T"/><use transform="matrix(0.05,0,0,0.05,49,0)" xlink:href="#U"/><use transform="matrix(0.05,0,0,0.05,52.95,0)" xlink:href="#V"/></g><path d="M206 0h-36l-40-164L89 0H53L-1-190h32L70-26l43-164h34l41 164 42-164h31" id="ak"/><g id="i"><use transform="matrix(0.05,0,0,0.05,0,0)" xlink:href="#ag"/><use transform="matrix(0.05,0,0,0.05,10,0)" xlink:href="#Q"/><use transform="matrix(0.05,0,0,0.05,20,0)" xlink:href="#ak"/></g><path d="M126-127c33 6 58 20 58 59 0 88-139 92-164 29-3-8-5-16-6-25l32-3c6 27 21 44 54 44 32 0 52-15 52-46 0-38-36-46-79-43v-28c39 1 72-4 72-42 0-27-17-43-46-43-28 0-47 15-49 41l-32-3c6-42 35-63 81-64 48-1 79 21 79 65 0 36-21 52-52 59" id="al"/><path d="M101-251c68 0 85 55 85 127S166 4 100 4C33 4 14-52 14-124c0-73 17-127 87-127zm-1 229c47 0 54-49 54-102s-4-102-53-102c-51 0-55 48-55 102 0 53 5 102 54 102" id="am"/><g id="j"><use transform="matrix(0.05,0,0,0.05,0,0)" xlink:href="#al"/><use transform="matrix(0.05,0,0,0.05,10,0)" xlink:href="#am"/></g><path d="M179-190L93 31C79 59 56 82 12 73V49c39 6 53-20 64-50L1-190h34L92-34l54-156h33" id="an"/><g id="k"><use transform="matrix(0.05,0,0,0.05,0,0)" xlink:href="#P"/><use transform="matrix(0.05,0,0,0.05,12.950000000000001,0)" xlink:href="#af"/><use transform="matrix(0.05,0,0,0.05,22.950000000000003,0)" xlink:href="#an"/><use transform="matrix(0.05,0,0,0.05,31.950000000000003,0)" xlink:href="#T"/></g><path d="M266 0h-40l-56-210L115 0H75L2-248h35L96-30l15-64 43-154h32l59 218 59-218h35" id="ao"/><path d="M106-169C34-169 62-67 57 0H25v-261h32l-1 103c12-21 28-36 61-36 89 0 53 116 60 194h-32v-121c2-32-8-49-39-48" id="ap"/><g id="l"><use transform="matrix(0.05,0,0,0.05,0,0)" xlink:href="#ao"/><use transform="matrix(0.05,0,0,0.05,16.95,0)" xlink:href="#U"/><use transform="matrix(0.05,0,0,0.05,20.9,0)" xlink:href="#V"/><use transform="matrix(0.05,0,0,0.05,25.899999999999995,0)" xlink:href="#ap"/><use transform="matrix(0.05,0,0,0.05,35.9,0)" xlink:href="#ac"/><use transform="matrix(0.05,0,0,0.05,45.9,0)" xlink:href="#ai"/><use transform="matrix(0.05,0,0,0.05,51.85,0)" xlink:href="#af"/><use transform="matrix(0.05,0,0,0.05,61.85,0)" xlink:href="#ak"/></g><path d="M24 0v-261h32V0H24" id="aq"/><path d="M33 0v-248h34V0H33" id="ar"/><path d="M87 75C49 33 22-17 22-94c0-76 28-126 65-167h31c-38 41-64 92-64 168S80 34 118 75H87" id="as"/><path d="M33-261c38 41 65 92 65 168S71 34 33 75H2C39 34 66-17 66-93S39-220 2-261h31" id="at"/><g id="m"><use transform="matrix(0.048148148148148155,0,0,0.048148148148148155,0,0)" xlink:href="#ak"/><use transform="matrix(0.048148148148148155,0,0,0.048148148148148155,12.470370370370372,0)" xlink:href="#U"/><use transform="matrix(0.048148148148148155,0,0,0.048148148148148155,16.274074074074075,0)" xlink:href="#V"/><use transform="matrix(0.048148148148148155,0,0,0.048148148148148155,21.088888888888892,0)" xlink:href="#ap"/><use transform="matrix(0.048148148148148155,0,0,0.048148148148148155,30.718518518518522,0)" xlink:href="#ac"/><use transform="matrix(0.048148148148148155,0,0,0.048148148148148155,40.348148148148155,0)" xlink:href="#ai"/><use transform="matrix(0.048148148148148155,0,0,0.048148148148148155,46.07777777777778,0)" xlink:href="#af"/><use transform="matrix(0.048148148148148155,0,0,0.048148148148148155,55.707407407407416,0)" xlink:href="#ak"/><use transform="matrix(0.048148148148148155,0,0,0.048148148148148155,68.17777777777779,0)" xlink:href="#af"/><use transform="matrix(0.048148148148148155,0,0,0.048148148148148155,77.80740740740742,0)" xlink:href="#aq"/><use transform="matrix(0.048148148148148155,0,0,0.048148148148148155,81.61111111111113,0)" xlink:href="#ar"/><use transform="matrix(0.048148148148148155,0,0,0.048148148148148155,86.42592592592594,0)" xlink:href="#ag"/><use transform="matrix(0.048148148148148155,0,0,0.048148148148148155,96.05555555555557,0)" xlink:href="#U"/><use transform="matrix(0.048148148148148155,0,0,0.048148148148148155,99.85925925925928,0)" xlink:href="#V"/><use transform="matrix(0.048148148148148155,0,0,0.048148148148148155,104.67407407407408,0)" xlink:href="#U"/><use transform="matrix(0.048148148148148155,0,0,0.048148148148148155,108.47777777777779,0)" xlink:href="#af"/><use transform="matrix(0.048148148148148155,0,0,0.048148148148148155,118.10740740740742,0)" xlink:href="#V"/><use transform="matrix(0.048148148148148155,0,0,0.048148148148148155,122.92222222222225,0)" xlink:href="#Q"/><use transform="matrix(0.048148148148148155,0,0,0.048148148148148155,132.55185185185186,0)" xlink:href="#as"/><use transform="matrix(0.048148148148148155,0,0,0.048148148148148155,138.2814814814815,0)" xlink:href="#at"/></g><path d="M205 0l-28-72H64L36 0H1l101-248h38L239 0h-34zm-38-99l-47-123c-12 45-31 82-46 123h93" id="au"/><g id="n"><use transform="matrix(0.05,0,0,0.05,0,0)" xlink:href="#au"/><use transform="matrix(0.05,0,0,0.05,12,0)" xlink:href="#aj"/><use transform="matrix(0.05,0,0,0.05,17,0)" xlink:href="#V"/><use transform="matrix(0.05,0,0,0.05,22,0)" xlink:href="#Q"/><use transform="matrix(0.05,0,0,0.05,32,0)" xlink:href="#ai"/></g><g id="o"><use transform="matrix(0.05,0,0,0.05,0,0)" xlink:href="#al"/><use transform="matrix(0.05,0,0,0.05,10,0)" xlink:href="#am"/></g><g id="p"><use transform="matrix(0.05,0,0,0.05,0,0)" xlink:href="#P"/><use transform="matrix(0.05,0,0,0.05,12.950000000000001,0)" xlink:href="#af"/><use transform="matrix(0.05,0,0,0.05,22.950000000000003,0)" xlink:href="#an"/><use transform="matrix(0.05,0,0,0.05,31.950000000000003,0)" xlink:href="#T"/></g><g id="q"><use transform="matrix(0.05,0,0,0.05,0,0)" xlink:href="#ao"/><use transform="matrix(0.05,0,0,0.05,16.3,0)" xlink:href="#af"/><use transform="matrix(0.05,0,0,0.05,26.3,0)" xlink:href="#U"/><use transform="matrix(0.05,0,0,0.05,30.25,0)" xlink:href="#V"/></g><g id="r"><use transform="matrix(0.05,0,0,0.05,0,0)" xlink:href="#ac"/><use transform="matrix(0.05,0,0,0.05,10,0)" xlink:href="#af"/><use transform="matrix(0.05,0,0,0.05,20,0)" xlink:href="#an"/><use transform="matrix(0.05,0,0,0.05,29,0)" xlink:href="#T"/></g><g id="s"><use transform="matrix(0.05,0,0,0.05,0,0)" xlink:href="#X"/><use transform="matrix(0.05,0,0,0.05,8.950000000000001,0)" xlink:href="#S"/><use transform="matrix(0.05,0,0,0.05,18.950000000000003,0)" xlink:href="#ab"/><use transform="matrix(0.05,0,0,0.05,27.950000000000003,0)" xlink:href="#Q"/><use transform="matrix(0.05,0,0,0.05,37.95,0)" xlink:href="#ag"/><use transform="matrix(0.05,0,0,0.05,47.95,0)" xlink:href="#T"/></g><g id="t"><use transform="matrix(0.05,0,0,0.05,0,0)" xlink:href="#af"/><use transform="matrix(0.05,0,0,0.05,10,0)" xlink:href="#ai"/><use transform="matrix(0.05,0,0,0.05,15.949999999999998,0)" xlink:href="#Q"/></g><path d="M115-194c53 0 69 39 70 98 0 66-23 100-70 100C84 3 66-7 56-30L54 0H23l1-261h32v101c10-23 28-34 59-34zm-8 174c40 0 45-34 45-75 0-40-5-75-45-74-42 0-51 32-51 76 0 43 10 73 51 73" id="av"/><g id="u"><use transform="matrix(0.05,0,0,0.05,0,0)" xlink:href="#V"/><use transform="matrix(0.05,0,0,0.05,5,0)" xlink:href="#ai"/><use transform="matrix(0.05,0,0,0.05,10.95,0)" xlink:href="#af"/><use transform="matrix(0.05,0,0,0.05,20.95,0)" xlink:href="#ag"/><use transform="matrix(0.05,0,0,0.05,30.950000000000003,0)" xlink:href="#T"/><use transform="matrix(0.05,0,0,0.05,39.95,0)" xlink:href="#aj"/><use transform="matrix(0.05,0,0,0.05,44.95,0)" xlink:href="#Q"/><use transform="matrix(0.05,0,0,0.05,54.95,0)" xlink:href="#ai"/><use transform="matrix(0.05,0,0,0.05,60.900000000000006,0)" xlink:href="#ai"/><use transform="matrix(0.05,0,0,0.05,66.85000000000001,0)" xlink:href="#af"/><use transform="matrix(0.05,0,0,0.05,76.85000000000001,0)" xlink:href="#av"/><use transform="matrix(0.05,0,0,0.05,86.85000000000001,0)" xlink:href="#aq"/><use transform="matrix(0.05,0,0,0.05,90.80000000000001,0)" xlink:href="#Q"/></g><g id="v"><use transform="matrix(0.05,0,0,0.05,0,0)" xlink:href="#V"/><use transform="matrix(0.05,0,0,0.05,5,0)" xlink:href="#ai"/><use transform="matrix(0.05,0,0,0.05,10.95,0)" xlink:href="#af"/><use transform="matrix(0.05,0,0,0.05,20.95,0)" xlink:href="#ag"/><use transform="matrix(0.05,0,0,0.05,30.950000000000003,0)" xlink:href="#T"/><use transform="matrix(0.05,0,0,0.05,39.95,0)" xlink:href="#aj"/><use transform="matrix(0.05,0,0,0.05,44.95,0)" xlink:href="#Q"/><use transform="matrix(0.05,0,0,0.05,54.95,0)" xlink:href="#ai"/><use transform="matrix(0.05,0,0,0.05,60.900000000000006,0)" xlink:href="#as"/><use transform="matrix(0.05,0,0,0.05,66.85000000000001,0)" xlink:href="#at"/></g><g id="w"><use transform="matrix(0.05,0,0,0.05,0,0)" xlink:href="#S"/><use transform="matrix(0.05,0,0,0.05,10,0)" xlink:href="#ai"/></g><path d="M63-220v92h138v28H63V0H30v-248h175v28H63" id="aw"/><path d="M210-169c-67 3-38 105-44 169h-31v-121c0-29-5-50-35-48C34-165 62-65 56 0H25l-1-190h30c1 10-1 24 2 32 10-44 99-50 107 0 11-21 27-35 58-36 85-2 47 119 55 194h-31v-121c0-29-5-49-35-48" id="ax"/><g id="x"><use transform="matrix(0.05,0,0,0.05,0,0)" xlink:href="#V"/><use transform="matrix(0.05,0,0,0.05,5,0)" xlink:href="#ai"/><use transform="matrix(0.05,0,0,0.05,10.95,0)" xlink:href="#af"/><use transform="matrix(0.05,0,0,0.05,20.95,0)" xlink:href="#ag"/><use transform="matrix(0.05,0,0,0.05,30.950000000000003,0)" xlink:href="#T"/><use transform="matrix(0.05,0,0,0.05,39.95,0)" xlink:href="#aj"/><use transform="matrix(0.05,0,0,0.05,44.95,0)" xlink:href="#Q"/><use transform="matrix(0.05,0,0,0.05,54.95,0)" xlink:href="#ai"/><use transform="matrix(0.05,0,0,0.05,60.900000000000006,0)" xlink:href="#aw"/><use transform="matrix(0.05,0,0,0.05,71.85000000000001,0)" xlink:href="#ai"/><use transform="matrix(0.05,0,0,0.05,77.80000000000001,0)" xlink:href="#S"/><use transform="matrix(0.05,0,0,0.05,87.80000000000001,0)" xlink:href="#ax"/><use transform="matrix(0.05,0,0,0.05,102.75,0)" xlink:href="#as"/><use transform="matrix(0.05,0,0,0.05,108.7,0)" xlink:href="#at"/></g><path d="M84 4C-5 8 30-112 23-190h32v120c0 31 7 50 39 49 72-2 45-101 50-169h31l1 190h-30c-1-10 1-25-2-33-11 22-28 36-60 37" id="ay"/><g id="y"><use transform="matrix(0.05,0,0,0.05,0,0)" xlink:href="#ar"/><use transform="matrix(0.05,0,0,0.05,5,0)" xlink:href="#T"/><use transform="matrix(0.05,0,0,0.05,14,0)" xlink:href="#T"/><use transform="matrix(0.05,0,0,0.05,23,0)" xlink:href="#ay"/><use transform="matrix(0.05,0,0,0.05,33,0)" xlink:href="#Q"/></g><g id="z"><use transform="matrix(0.05,0,0,0.05,0,0)" xlink:href="#V"/><use transform="matrix(0.05,0,0,0.05,5,0)" xlink:href="#S"/><use transform="matrix(0.05,0,0,0.05,15,0)" xlink:href="#ab"/><use transform="matrix(0.05,0,0,0.05,24,0)" xlink:href="#Q"/><use transform="matrix(0.05,0,0,0.05,34,0)" xlink:href="#ag"/><use transform="matrix(0.05,0,0,0.05,44,0)" xlink:href="#T"/></g><g id="A"><use transform="matrix(0.05,0,0,0.05,0,0)" xlink:href="#W"/><use transform="matrix(0.05,0,0,0.05,12,0)" xlink:href="#X"/><use transform="matrix(0.05,0,0,0.05,22.950000000000003,0)" xlink:href="#Y"/></g><g id="B"><use transform="matrix(0.05,0,0,0.05,0,0)" xlink:href="#ao"/><use transform="matrix(0.05,0,0,0.05,16.95,0)" xlink:href="#U"/><use transform="matrix(0.05,0,0,0.05,20.9,0)" xlink:href="#V"/><use transform="matrix(0.05,0,0,0.05,25.899999999999995,0)" xlink:href="#ap"/><use transform="matrix(0.05,0,0,0.05,35.9,0)" xlink:href="#ac"/><use transform="matrix(0.05,0,0,0.05,45.9,0)" xlink:href="#ai"/><use transform="matrix(0.05,0,0,0.05,51.85,0)" xlink:href="#af"/><use transform="matrix(0.05,0,0,0.05,61.85,0)" xlink:href="#ak"/><use transform="matrix(0.05,0,0,0.05,74.8,0)" xlink:href="#ag"/></g><path d="M234-2c-28 10-62 0-77-18C117 19 8 12 13-65c3-43 29-61 60-76-25-40-17-114 47-108 35 3 59 15 59 50 0 44-40 53-71 69 14 26 32 50 51 72 14-21 24-43 30-72l26 8c-9 33-21 57-38 82 13 13 33 22 57 15v23zM97-151c25-10 52-18 56-48-1-18-13-29-33-29-42 0-39 50-23 77zM42-66c-3 51 71 58 98 28-20-24-41-51-56-80-23 10-40 24-42 52" id="az"/><use transform="matrix(0.05,0,0,0.05,0,0)" xlink:href="#az" id="C"/><g id="D"><use transform="matrix(0.05,0,0,0.05,0,0)" xlink:href="#ac"/><use transform="matrix(0.05,0,0,0.05,10,0)" xlink:href="#Q"/><use transform="matrix(0.05,0,0,0.05,20,0)" xlink:href="#T"/><use transform="matrix(0.05,0,0,0.05,29,0)" xlink:href="#V"/><use transform="matrix(0.05,0,0,0.05,34,0)" xlink:href="#ai"/><use transform="matrix(0.05,0,0,0.05,39.95,0)" xlink:href="#S"/><use transform="matrix(0.05,0,0,0.05,49.95,0)" xlink:href="#an"/><use transform="matrix(0.05,0,0,0.05,58.95,0)" xlink:href="#Q"/><use transform="matrix(0.05,0,0,0.05,68.95,0)" xlink:href="#ac"/></g><g id="E"><use transform="matrix(0.05,0,0,0.05,0,0)" xlink:href="#aa"/><use transform="matrix(0.05,0,0,0.05,9,0)" xlink:href="#af"/><use transform="matrix(0.05,0,0,0.05,19,0)" xlink:href="#aq"/><use transform="matrix(0.05,0,0,0.05,22.95,0)" xlink:href="#aq"/></g><g id="F"><use transform="matrix(0.048148148148148155,0,0,0.048148148148148155,0,0)" xlink:href="#ak"/><use transform="matrix(0.048148148148148155,0,0,0.048148148148148155,12.470370370370372,0)" xlink:href="#U"/><use transform="matrix(0.048148148148148155,0,0,0.048148148148148155,16.274074074074075,0)" xlink:href="#V"/><use transform="matrix(0.048148148148148155,0,0,0.048148148148148155,21.088888888888892,0)" xlink:href="#ap"/><use transform="matrix(0.048148148148148155,0,0,0.048148148148148155,30.718518518518522,0)" xlink:href="#ac"/><use transform="matrix(0.048148148148148155,0,0,0.048148148148148155,40.348148148148155,0)" xlink:href="#ai"/><use transform="matrix(0.048148148148148155,0,0,0.048148148148148155,46.07777777777778,0)" xlink:href="#af"/><use transform="matrix(0.048148148148148155,0,0,0.048148148148148155,55.707407407407416,0)" xlink:href="#ak"/><use transform="matrix(0.048148148148148155,0,0,0.048148148148148155,68.17777777777779,0)" xlink:href="#af"/><use transform="matrix(0.048148148148148155,0,0,0.048148148148148155,77.80740740740742,0)" xlink:href="#aq"/><use transform="matrix(0.048148148148148155,0,0,0.048148148148148155,81.61111111111113,0)" xlink:href="#ae"/><use transform="matrix(0.048148148148148155,0,0,0.048148148148148155,94.0814814814815,0)" xlink:href="#S"/><use transform="matrix(0.048148148148148155,0,0,0.048148148148148155,103.71111111111112,0)" xlink:href="#ax"/><use transform="matrix(0.048148148148148155,0,0,0.048148148148148155,118.10740740740745,0)" xlink:href="#R"/><use transform="matrix(0.048148148148148155,0,0,0.048148148148148155,127.73703703703708,0)" xlink:href="#aq"/><use transform="matrix(0.048148148148148155,0,0,0.048148148148148155,131.54074074074077,0)" xlink:href="#Q"/><use transform="matrix(0.048148148148148155,0,0,0.048148148148148155,141.1703703703704,0)" xlink:href="#V"/><use transform="matrix(0.048148148148148155,0,0,0.048148148148148155,145.9851851851852,0)" xlink:href="#Q"/><use transform="matrix(0.048148148148148155,0,0,0.048148148148148155,155.61481481481482,0)" xlink:href="#as"/><use transform="matrix(0.048148148148148155,0,0,0.048148148148148155,161.34444444444446,0)" xlink:href="#at"/></g><g id="G"><use transform="matrix(0.048148148148148155,0,0,0.048148148148148155,0,0)" xlink:href="#V"/><use transform="matrix(0.048148148148148155,0,0,0.048148148148148155,4.814814814814816,0)" xlink:href="#S"/></g><g id="H"><use transform="matrix(0.048148148148148155,0,0,0.048148148148148155,0,0)" xlink:href="#aa"/><use transform="matrix(0.048148148148148155,0,0,0.048148148148148155,8.666666666666668,0)" xlink:href="#af"/><use transform="matrix(0.048148148148148155,0,0,0.048148148148148155,18.296296296296298,0)" xlink:href="#aq"/><use transform="matrix(0.048148148148148155,0,0,0.048148148148148155,22.1,0)" xlink:href="#aa"/><use transform="matrix(0.048148148148148155,0,0,0.048148148148148155,30.766666666666673,0)" xlink:href="#ay"/><use transform="matrix(0.048148148148148155,0,0,0.048148148148148155,40.3962962962963,0)" xlink:href="#aq"/><use transform="matrix(0.048148148148148155,0,0,0.048148148148148155,44.2,0)" xlink:href="#af"/><use transform="matrix(0.048148148148148155,0,0,0.048148148148148155,53.829629629629636,0)" xlink:href="#V"/><use transform="matrix(0.048148148148148155,0,0,0.048148148148148155,58.64444444444445,0)" xlink:href="#Q"/></g><g id="I"><use transform="matrix(0.048148148148148155,0,0,0.048148148148148155,0,0)" xlink:href="#ai"/><use transform="matrix(0.048148148148148155,0,0,0.048148148148148155,5.72962962962963,0)" xlink:href="#Q"/><use transform="matrix(0.048148148148148155,0,0,0.048148148148148155,15.359259259259261,0)" xlink:href="#ak"/><use transform="matrix(0.048148148148148155,0,0,0.048148148148148155,27.829629629629633,0)" xlink:href="#af"/><use transform="matrix(0.048148148148148155,0,0,0.048148148148148155,37.45925925925926,0)" xlink:href="#ai"/><use transform="matrix(0.048148148148148155,0,0,0.048148148148148155,43.18888888888889,0)" xlink:href="#ac"/></g><g id="J"><use transform="matrix(0.048148148148148155,0,0,0.048148148148148155,0,0)" xlink:href="#af"/><use transform="matrix(0.048148148148148155,0,0,0.048148148148148155,9.629629629629632,0)" xlink:href="#ag"/><use transform="matrix(0.048148148148148155,0,0,0.048148148148148155,19.259259259259263,0)" xlink:href="#ac"/></g><g id="K"><use transform="matrix(0.048148148148148155,0,0,0.048148148148148155,0,0)" xlink:href="#W"/><use transform="matrix(0.048148148148148155,0,0,0.048148148148148155,11.555555555555557,0)" xlink:href="#V"/><use transform="matrix(0.048148148148148155,0,0,0.048148148148148155,16.370370370370374,0)" xlink:href="#ap"/></g><g id="L"><use transform="matrix(0.048148148148148155,0,0,0.048148148148148155,0,0)" xlink:href="#ak"/><use transform="matrix(0.048148148148148155,0,0,0.048148148148148155,12.470370370370372,0)" xlink:href="#U"/><use transform="matrix(0.048148148148148155,0,0,0.048148148148148155,16.274074074074075,0)" xlink:href="#ac"/><use transform="matrix(0.048148148148148155,0,0,0.048148148148148155,25.90370370370371,0)" xlink:href="#V"/><use transform="matrix(0.048148148148148155,0,0,0.048148148148148155,30.718518518518522,0)" xlink:href="#ap"/><use transform="matrix(0.048148148148148155,0,0,0.048148148148148155,40.348148148148155,0)" xlink:href="#ac"/><use transform="matrix(0.048148148148148155,0,0,0.048148148148148155,49.97777777777779,0)" xlink:href="#ai"/><use transform="matrix(0.048148148148148155,0,0,0.048148148148148155,55.707407407407416,0)" xlink:href="#af"/><use transform="matrix(0.048148148148148155,0,0,0.048148148148148155,65.33703703703705,0)" xlink:href="#ak"/><use transform="matrix(0.048148148148148155,0,0,0.048148148148148155,77.80740740740742,0)" xlink:href="#af"/><use transform="matrix(0.048148148148148155,0,0,0.048148148148148155,87.43703703703706,0)" xlink:href="#aq"/></g><path d="M145-31C134-9 116 4 85 4 32 4 16-35 15-94c0-59 17-99 70-100 32-1 48 14 60 33 0-11-1-24 2-32h30l-1 268h-32zM93-21c41 0 51-33 51-76s-8-73-50-73c-40 0-46 35-46 75s5 74 45 74" id="aA"/><g id="M"><use transform="matrix(0.048148148148148155,0,0,0.048148148148148155,0,0)" xlink:href="#aA"/><use transform="matrix(0.048148148148148155,0,0,0.048148148148148155,9.629629629629632,0)" xlink:href="#ay"/><use transform="matrix(0.048148148148148155,0,0,0.048148148148148155,19.259259259259263,0)" xlink:href="#U"/><use transform="matrix(0.048148148148148155,0,0,0.048148148148148155,23.062962962962967,0)" xlink:href="#aa"/><use transform="matrix(0.048148148148148155,0,0,0.048148148148148155,31.729629629629635,0)" xlink:href="#ab"/><use transform="matrix(0.048148148148148155,0,0,0.048148148148148155,40.3962962962963,0)" xlink:href="#ao"/><use transform="matrix(0.048148148148148155,0,0,0.048148148148148155,56.71851851851853,0)" xlink:href="#U"/><use transform="matrix(0.048148148148148155,0,0,0.048148148148148155,60.52222222222223,0)" xlink:href="#V"/><use transform="matrix(0.048148148148148155,0,0,0.048148148148148155,65.33703703703704,0)" xlink:href="#ap"/><use transform="matrix(0.048148148148148155,0,0,0.048148148148148155,74.96666666666667,0)" xlink:href="#ac"/><use transform="matrix(0.048148148148148155,0,0,0.048148148148148155,84.5962962962963,0)" xlink:href="#ai"/><use transform="matrix(0.048148148148148155,0,0,0.048148148148148155,90.32592592592593,0)" xlink:href="#af"/><use transform="matrix(0.048148148148148155,0,0,0.048148148148148155,99.95555555555558,0)" xlink:href="#ak"/><use transform="matrix(0.048148148148148155,0,0,0.048148148148148155,112.42592592592594,0)" xlink:href="#as"/><use transform="matrix(0.048148148148148155,0,0,0.048148148148148155,118.15555555555558,0)" xlink:href="#at"/></g><path d="M27 0v-27h64v-190l-56 39v-29l58-41h29v221h61V0H27" id="aB"/><path d="M252-156c43 0 55 33 55 80 0 46-13 78-56 78-42 0-55-33-55-78 0-48 12-80 56-80zM93 0H65l162-248h28zM13-171c-1-47 13-79 56-79s55 33 55 79-13 79-55 79c-43 0-56-33-56-79zM251-17c28 0 30-29 30-59 0-31-1-60-29-60-29 0-31 29-31 60 0 29 2 59 30 59zM69-112c27 0 28-30 29-59 0-31-1-60-29-60-29 0-30 30-30 60s2 59 30 59" id="aC"/><g id="N"><use transform="matrix(0.048148148148148155,0,0,0.048148148148148155,0,0)" xlink:href="#aB"/><use transform="matrix(0.048148148148148155,0,0,0.048148148148148155,9.629629629629632,0)" xlink:href="#aC"/></g><g id="O"><use transform="matrix(0.048148148148148155,0,0,0.048148148148148155,0,0)" xlink:href="#aj"/><use transform="matrix(0.048148148148148155,0,0,0.048148148148148155,4.814814814814816,0)" xlink:href="#Q"/><use transform="matrix(0.048148148148148155,0,0,0.048148148148148155,14.444444444444446,0)" xlink:href="#Q"/></g></defs></g></svg>